<svg width="46" height="53" viewBox="0 0 46 53" fill="none" xmlns="http://www.w3.org/2000/svg">
<path d="M9.96875 13L7.0625 5.40625H7.01562C7.07031 6.00781 7.09766 6.72266 7.09766 7.55078V13H6.17773V4.43359H7.67773L10.3906 11.5H10.4375L13.1738 4.43359H14.6621V13H13.666V7.48047C13.666 6.84766 13.6934 6.16016 13.748 5.41797H13.7012L10.7715 13H9.96875ZM21.793 13H17.0176V4.43359H21.793V5.31836H18.0137V8.07812H21.5645V8.95703H18.0137V12.1094H21.793V13ZM30.3887 13H29.252L24.5703 5.81055H24.5234C24.5859 6.6543 24.6172 7.42773 24.6172 8.13086V13H23.6973V4.43359H24.8223L29.4922 11.5938H29.5391C29.5312 11.4883 29.5137 11.1504 29.4863 10.5801C29.459 10.0059 29.4492 9.5957 29.457 9.34961V4.43359H30.3887V13ZM39.2129 4.43359V9.97656C39.2129 10.9531 38.918 11.7207 38.3281 12.2793C37.7383 12.8379 36.9277 13.1172 35.8965 13.1172C34.8652 13.1172 34.0664 12.8359 33.5 12.2734C32.9375 11.7109 32.6562 10.9375 32.6562 9.95312V4.43359H33.6523V10.0234C33.6523 10.7383 33.8477 11.2871 34.2383 11.6699C34.6289 12.0527 35.2031 12.2441 35.9609 12.2441C36.6836 12.2441 37.2402 12.0527 37.6309 11.6699C38.0215 11.2832 38.2168 10.7305 38.2168 10.0117V4.43359H39.2129Z" fill="#3A3A3A"/>
<rect y="19" width="46" height="8" fill="url(#paint0_linear_1983_157)"/>
<rect y="32" width="46" height="8" fill="url(#paint1_linear_1983_157)"/>
<rect y="45" width="46" height="8" fill="url(#paint2_linear_1983_157)"/>
<defs>
<linearGradient id="paint0_linear_1983_157" x1="1.71363e-07" y1="23" x2="46" y2="23" gradientUnits="userSpaceOnUse">
<stop stop-color="#EB6C27"/>
<stop offset="1" stop-color="#FFBE9A"/>
</linearGradient>
<linearGradient id="paint1_linear_1983_157" x1="1.71363e-07" y1="36" x2="46" y2="36" gradientUnits="userSpaceOnUse">
<stop stop-color="#EB6C27"/>
<stop offset="1" stop-color="#FFBE9A"/>
</linearGradient>
<linearGradient id="paint2_linear_1983_157" x1="1.71363e-07" y1="49" x2="46" y2="49" gradientUnits="userSpaceOnUse">
<stop stop-color="#EB6C27"/>
<stop offset="1" stop-color="#FFBE9A"/>
</linearGradient>
</defs>
</svg>
